<?xml version="1.0" encoding="utf-8"?>
<!-- Generator: Adobe Illustrator 18.1.1, SVG Export Plug-In . SVG Version: 6.00 Build 0)  -->
<svg version="1.1" id="Layer_1" xmlns="http://www.w3.org/2000/svg" xmlns:xlink="http://www.w3.org/1999/xlink" x="0px" y="0px"
	 viewBox="0 0 225.8 183.7" enable-background="new 0 0 225.8 183.7" xml:space="preserve">
<line fill="none" stroke="#FFFFFF" stroke-width="6" stroke-linecap="round" stroke-miterlimit="10" x1="117.4" y1="96.1" x2="117.4" y2="104.2"/>
<line fill="none" stroke="#FFFFFF" stroke-width="6" stroke-linecap="round" stroke-miterlimit="10" x1="125.1" y1="95.3" x2="125.1" y2="103.4"/>
<line fill="none" stroke="#FFFFFF" stroke-width="6" stroke-linecap="round" stroke-miterlimit="10" x1="132.8" y1="93.8" x2="132.8" y2="101.9"/>
<line fill="none" stroke="#FFFFFF" stroke-width="6" stroke-linecap="round" stroke-miterlimit="10" x1="109.6" y1="96.4" x2="109.6" y2="104.4"/>
<line fill="none" stroke="#FFFFFF" stroke-width="6" stroke-linecap="round" stroke-miterlimit="10" x1="100.8" y1="98.2" x2="100.8" y2="106.2"/>
<line fill="none" stroke="#FFFFFF" stroke-width="6" stroke-linecap="round" stroke-miterlimit="10" x1="141.1" y1="94.3" x2="141.1" y2="102.4"/>
<path d="M165.2,61.8c-11-16.5-23.8-27.9-45.4-28.6c-16.2-0.5-56.5,4.8-65.8,20.7c-9.3,15.8-8.6,53,3.4,76.8c6.6,13,78,29.8,101.9,12
	C190.3,119.7,176.2,78.4,165.2,61.8z M155.6,114.4c-6.5,9.3-18.2,15.8-43.4,14.1c-25.1-1.7-24.4-17.9-22.7-24.1
	c1.7-6.2,17.7-6.8,30-8.6c11.7-1.7,22.7-1.4,28.2,0.7S162.2,105.1,155.6,114.4z"/>
<circle fill="#FFFFFF" cx="84.9" cy="75.4" r="3.3"/>
<circle fill="#FFFFFF" cx="133.3" cy="73.3" r="3.3"/>
</svg>
